<svg xmlns="http://www.w3.org/2000/svg" xmlns:xlink="http://www.w3.org/1999/xlink" width="1080" zoomAndPan="magnify" viewBox="0 0 810 809.999993" height="1080" preserveAspectRatio="xMidYMid meet" version="1.0"><path fill="#b7b7b7" d="M 405 81 C 226.027344 81 81 226.027344 81 405 C 81 583.972656 226.027344 729 405 729 C 583.972656 729 729 583.972656 729 405 C 728.71875 226.027344 583.691406 81 405 81 Z M 579.484375 279.886719 L 516.367188 575.835938 C 513.28125 590.703125 495.886719 597.15625 483.824219 588.179688 L 334.027344 476.53125 L 499.535156 327.015625 C 499.535156 327.015625 510.753906 317.757812 507.671875 314.953125 C 504.304688 311.585938 491.960938 318.878906 485.789062 323.089844 C 479.335938 327.855469 282.972656 451.847656 282.972656 451.847656 L 183.390625 420.988281 C 172.167969 417.625 172.167969 402.195312 188.4375 395.460938 L 554.238281 254.640625 C 570.226562 246.785156 582.847656 264.742188 579.484375 279.886719 Z M 579.484375 279.886719 " fill-opacity="1" fill-rule="nonzero"/></svg>